<svg version="1.2" xmlns="http://www.w3.org/2000/svg" viewBox="0 0 510 597" width="510" height="597"><style>.a{fill:#fcfdf5}.b{fill:#dc8434}.c{fill:#f56028}.d{fill:#dbd4d3}.e{fill:#3e2e2e}</style><path class="a" d="m60.1 351.9c0-115.2 93.4-208.5 208.5-208.5 115.2 0 208.5 93.3 208.5 208.5 0 115.2-93.3 208.5-208.5 208.5-115.1 0-208.5-93.3-208.5-208.5z"/><path class="a" d="m408.9 211.6c-1.7 3.2 1.6 4.9 4.2 5.6 3.4 0.8 7.2 0.3 10.3-1.2 1.6-0.8 6.9-3 7.1-4.9 1.1-8.1-7.6-12.9-13.9-15.8-6.6-2-13.5-1.7-20.1-0.2-2.5 0.5-5.9 3.5-5.9 6.3 0 1.5 1 2.8 2.3 3.6 2.1 1.4 5.2 1.9 7.7 2 9.1 0.2 21.1-5.5 27.8 3.1-6.4-2.6-13.3-0.8-19.5 1.5z"/><path class="a" d="m408.3 134.7c10.3-7.8-1.7-27.6-13-19.4-10.5 7.7 2.1 24.8 13 19.4z"/><path class="a" d="m279.2 133.7c-5.4 1.7-8.3 7.8-7.1 13.2 1.3 8 10.4 12.8 17.8 9.5 11.2-6.5 1.6-27.3-10.7-22.7z"/><path class="a" d="m161.7 464.2c-0.4-3.5-0.7-7-0.6-10.3q0-0.5 0-1 0-0.5 0.1-0.9 0-0.7 0.1-1.4c0.7-8.4 1.8-18.3 2.9-27.1-8.7 19.2-8.9 50-8.9 50 0 0-10.8-47.6 9-104.4-21.4 12.1-43.3 38-62 71.7q0 0-0.1 0c-5.1 8.6-9.6 17.7-13.6 26.9q-0.9 3.3-1.9 6.7c-9.8 26.7-11.1 57.3 0.7 83.6 5.9 13.1 18.4 22.2 32.4 24.4l0.2-0.3c-11.5-3.2-18.2-14.3-20.7-25.2-1.8-10.2-0.1-21 4.5-30.2-0.8 11.4-1.6 23.4 3.1 34.2 4.7 11.3 17.2 18.5 29.4 17.8 0.2-9.2-1.1-18.6 0.7-27.7 1.4 9.2 1.2 19.8 8.1 27 6.5 0.8 13.9 0.8 19.5-3 5.5-4.3 7.9-11.5 8.2-18.3 1.1-18.6-0.7-37.4-3.9-55.8-2.4-12.2-5.8-24.3-7.2-36.7z"/><path class="a" d="m262.8 566.5q-0.9-0.8-1.8-1.5c-6.7-4.9-14.8-7.3-22.9-8.2-4.4-0.5-8.7-0.3-13.1-0.4-4.5-0.1-9-0.3-13.5 0.2-3.4 0.3-7.6 0.6-10.2 3-2.4 2.2-3.6 5.1-4.7 8.1-1 3.1-1.8 7-0.4 10.1 1.3 3.1 4.1 4.7 7.1 5.8 3.6 1.2 8.2 2 13 2.4 0.1-2 0.3-5.8 0.3-6.2 0.1-2.3 0-4.6 0.6-6.8 0.3-1.1 0.7-1.5 1.6-2.3q0.1 0 0.2 0c0.1-0.1 0.2 0.1 0.3 0.2q0 0.4 0 0.7c0.2 2.3 0.3 4.7 0.6 7.1 0.3 2.6 0.8 5.2 1.6 7.7 6.1 0.4 12.5 0.3 17.8 0.2q1.8-0.1 3.6-0.2c0.1-1.8 0.1-6.6 0.2-7.2 0-2.4-0.2-5.2 0.7-7.5 0.2-0.4 0.7-1.6 1.2-0.9 1.6 2.7 2.3 5.6 2.4 8.7 0.2 2.2 0.1 4.4 0.3 6.6 8.6-0.8 16.4-2.2 18.4-4 2-1.8 2.6-2.9 2.5-4.2-0.5-4.4-2-8.6-5.8-11.4z"/><path class="a" d="m47.3 418.5c-17.5-28.2-23.1-63.6-16.9-96.1-20.1 30.9-21.4 72-5.7 105 4.4 8.2 9 16.4 14.6 23.8v0.1c13 19.9 30.4 31.6 30.4 31.6 0 0 6.4-18.5 14.2-31.6 0 0-25.4-14.9-36.6-32.8z"/><path class="a" d="m397 298.8c-5.6 2-11.5 3.4-17.7 4.3 8.7 9.4 10.2 15.4 10.2 15.4 0 0-4.7-6.2-18.2-14.6-16.6 1.3-35-0.3-54.5-3 4.2 6.3 8.9 12.3 13.9 17.9 9 8.4 18.1 15.1 28.6 18.8 12.9 3.4 40.8 2.7 49.1-3.7 8.4-6.4 8.3-10.9 7.5-15-0.8-4-7.7-15-18.9-20.1z"/><path class="a" d="m399.2 353.4c-12.6 6.3-27.1 5.8-40.7 4.2-22.2-3.1-40.9-16.9-57.8-30.7-5.1-4.9-10.7-9.3-16.4-13.5-6.1-4.1-16.6-10.5-30.8-15.9q2 2.3 4.1 4.5c9 9 11.7 19.2 12.6 23.7-6.8-11-16-20.9-26.6-28.4-3.3-2.5-6.9-4.9-10.8-6.3-1.9 2.1-1.8 5.3 0.7 7.5 10.1 8.8 20 18.2 27 29.8q-4.8-5.6-10-10.6c-1.7-1.5-11.5-10-18.2-14.2-7.3-4.6-11.5-2.6-18.7 10.6v-0.2c-7.4 13.9-16 27.1-22.7 41.4q-1.3 2.9-2.6 5.7c-2.5 6.1-4.8 11.5-6.9 16.5-10.1 23.4-15.5 49.7-12.2 82 4.5 31.2 15.9 45.3 19.1 59.3 0.9 4.1 1.9 8.3 2.4 12.5 0.5 4 0.3 14.2 1.9 18 0.2 0.5 0.6 1.2 1.1 1.5 2 1.4 2.4-1.8 2.5-3.1 0.2-5.2-0.6-16.3-1.8-21.4-1.3-6.2-3.2-12.2-5.1-18.3q-1.5-4.9-3.2-9.8-3.2-9.9-7-19.5 1.3 1.9 2.6 3.8c5.6 8.4 10.2 17.5 13.4 27.1 1.6 4.9 2.8 9.8 3.7 14.9q0.6 3.7 0.9 7.5c0.2 2.5 0 11.1 0.6 13.6 0.4 1.5 1.2 2.9 2.5 3.7 1.4 0.9 3.2 0.9 4.9 0.6 8-1.2 16.3-1.2 24.5-1 0.7 0 7.6 0.6 7.8 0.2 5.7-12.2 10.5-30.7 14.4-43.5 7.3-24.3 11.9-49.4 13.4-74.7 0.3-8.2-0.2-19.7-3.5-37.9-4-22.1-10.3-34.2-23.8-58.7q-2.6-4.5-5.3-9c5.2 0.4 8.3 5.7 10.7 10.4 13.5 26.6 28.5 52.5 45.1 77.3-13.4-13.2-24.2-28.8-24.2-28.8-0.7 1.9 0 4.2 3.2 23.7l-0.1-0.2q0.9 4.5 1.5 9c1.8 13.2 2.4 26.5 1.7 39.8-0.6 12.8-1.9 25.8-4.7 38.3-1.7 8.4-4.8 16.3-7.7 24.3-3 8.2-6 22.4-9.2 30.5 0.4-1 9.3 1.1 10.5 1.3 4.3 0.9 8.7 1.1 13.1 0.6 8.6-1.1 16.8-4.8 23.9-9.4 24.2-15.7 44.4-39.8 53.1-67.5 5.2-16.7 9.2-34.3 7.1-51.8 9.9 33.6-3.5 69.5-24.9 95.7q-2.9 3.3-5.9 6.3c7.1-5.4 13.5-11.4 19.4-17.9q0.9-1.5 1.9-3.1 2.2-3.5 4.6-7.4c4.2-6.9 8.1-14.1 11-21.7q1.6-3.6 3-7.3c4.8-11.6 4.8-23.5 1.2-34.9q-3-7.8-7.8-16.2-0.7-1.1-1.2-2.1c-5.8-9.7-13.1-19.6-20.9-28.5-6.2-6.4-11.2-13.8-17.2-20.4-7.1-7.1-14.3-14.6-21.2-22.7-1.7-1.4-3.1-3-4.2-4.9 6.1 3.2 11.4 7.8 17.5 11 21.4 12.6 47.3 18 72 14.3 14.3-1.7 26.1-11.3 33.4-23.4 1.1-1.8 4.9-8.8 2.7-12.4-0.8-0.9-1.7-1.7-2.9-2.3-3.4 11.4-9.5 22.9-20.5 28.5z"/><path class="a" d="m388.5 369.3q0.3 18.8 0.1 37.6c-0.3 17.1-4.7 33.4-8.3 50-3.8 17.9-13.1 35.1-22.8 50.4-5.4 8.5-11.3 16.9-14.6 26.5-0.8 2.2-1.4 4.7-1.8 7.3q-0.4 1-0.7 2.2c-3.6 15.9 0.5 41.2 23 41.2 22.4 0 43.3 0 43.3 0-9.5-3-18.3-8.2-25.7-14.9 14.9 4.2 27.8 17.5 44.2 13.5 2.4-9.7-5.3-17.9-12.7-22.9-2.8-2-5.9-3.6-9.1-4.9q-0.2-0.1-0.5-0.2c-13.6-5.4-25.4-4.7-35.9-1 8.1-11.7 21.9-42.5 30-70.8q2.7-10.2 4.7-20.4 0.3-1.6 0.6-2.9c2-11 3.4-22 4-33.2 1.1-20.4-3.3-40.4-6.2-60.4q-5.7 1.8-11.6 2.9z"/><path class="b" d="m168.2 63.3c-5-5.3-12.4-6.7-19.2-8.1 6.5-12.8 23.2-7.9 34.8-8.3-6.4-6.6-16.4-7-25-6.6-13.6 0.4-24.7 9.6-33.7 18.9-13.5 14.6-25.9 30.2-40.1 44-16.2 16.6-33.9 32-47.8 50.7-5.8 7.1-3.7 15.8-0.3 23.5q0.3-1.3 0.5-2.5c1.3-5.7 3.5-11 6.2-15.9-0.5 19.7 15.8 32 15.8 32 0 0-18.6-33.2-2.9-49.3 7.8-8.2 15.8-14 20.3-17.1 2.4-1.5 3.8-2.3 3.8-2.3 0 0-21.1 25.4 5.7 44.4 2.3 1.6 4.8 3.2 7.8 4.7 18 7.1 38.4 9.2 56.7 2 8-2.3 14-10 22.8-9.6 5.1 3.6 8.1 9.6 12.9 13.1 0.4-27.6-0.3-55.7-5.2-83.1-2.5-10.8-5.4-22.2-13.1-30.5z"/><path fill-rule="evenodd" class="a" d="m452.1 200.8c8.2 11.1 11.5 25.2 10.4 38.9q-0.7-0.2-1.5-0.2c-2.4 0-4.3 1.9-4.3 4.3 0 2.4 1.9 4.3 4.3 4.3q0.1 0 0.2 0c-1.5 7.1-4.2 13.9-8.1 19.9q-0.1 0.3-0.3 0.5-0.5 0.7-1 1.4c-0.7-0.9-1.9-1.5-3.2-1.5-2.4 0-4.3 2-4.3 4.4 0 1.5 0.8 2.9 2.1 3.7q-1.1 1-2.1 2.1c-2.6 2.2-5.6 3.9-9.6 5.8-7.8 3.7-18.6 3.4-28.4 0.8 1.9-11 2.5-22.1 3.2-33.3 0 0.1 2.1-1.2 3.1-1.7 5.3 3.7 10.6 2.9 10.6 2.9-3.2-0.7-5.8-2.3-8-4.4 0.7-0.4 1.5-0.7 2.2-1.2 2.8-1.8 5.4-3.9 7.8-6.2q0.3-0.4 0.7-0.7c7 5 14 2.6 14 2.6-4.6-0.2-8.5-2.2-11.7-5.2 7-8.5 11.9-20.4 10.1-31.2-2.5-6.9-8.2-12.2-14.9-15.1-8.6-4.1-18.3-5-27.7-4.1-8.7 0.9-18.9 2.7-26.3 7.8-6.8 4.8-11.2 13.1-10.2 21.5 0.5 7.9 6.8 14.6 13.3 19.9-2.7 4.2-6.4 7.4-11.4 8.6 0 0 8.2 1.1 14.3-6.3 1.4 1 2.8 2.1 4.1 3q4.4 3.1 9.1 5.7c-1.9 5.8-5.3 10.5-11 12.8 0 0 10-0.2 14.6-11.1 2.8 1.2 6.8 2.9 6.8 3-0.1 7.4-2 14.8-6.2 21-6.9 9.9-18.6 15.5-30.3 17.5-24.4 5-49.9-3.7-69.2-18.8-5.3-4-9.3-9.7-15.6-12.3 2.5 8.5 8 15.5 12.6 22.8 5.1 7.3 10.3 14.4 15.8 21.3 0 0 10.3 15.6 27.1 27.6q0.1 0 0.1 0c3.6 2.5 7.4 4.9 11.5 6.9 6.5 3.3 13.3 5.9 20.2 7.7q1.7 0.3 3.8 0.9 0.2 0 0.3 0c4.3 0.9 8.5 1.5 12.5 1.6 13.8 0.1 24.3-5.1 24.3-5.1 0 0-3.4 5.7-10.3 7.5-6.9 1.8-17.5 4.3-38.9 0-3.9-0.7-8.1-1.8-12.5-3.3-21.3-7.1-35.1-27-61.3-44.1-6.4-3.7-13-6.9-20-9.5-23.3-8.3-47-21.6-59.4-43.9-4.4-5.6-6.9-12.3-8.9-19.1-5.5-22.4 1.7-46.3 1.2-89.2-0.3-6.4-0.5-12.8-0.3-19.3 0.3-19.6-2.8-41 7.7-58.8h0.3q2.3-2.7 5-4.9c39.9-26.9 90.1-38.9 137.7-30.7 18.2 3.1 34.9 12.4 47.8 25.5l0.4-0.1c12.1 12.5 19.5 28.6 23.9 45.3-5.8-6.2-11.3-12.7-18.2-17.7 0.1-7.9-7-12.5-13.7-14.6-4.4-1.4-9.3-2.2-13.4-0.1-0.3 0.1-0.8 0.3-1 0-0.2-0.1-0.2-0.4-0.2-0.6q0-0.9 0-1.9c0 0.2-3.4 1.5-3.8 1.6-1.4 0.8-2.7 1.6-3.9 2.6-2.6 2.3-5.7 7.2-2.9 10.5 1 1 2.5 1.5 3.9 1.7 4.2 0.7 8.3 1.8 12.4 3.3 0.2 0 0.5 0.1 0.5 0.4 0.2 0.2 0 0.5-0.1 0.7-0.8 1.2-2 2-3.1 2.9q-1.7 1.7-3.2 3.4c-1.6 1.9-3.1 3.8-4 6.1-0.4 0.9-2 5 0.3 4.9 1.2-0.1 2.5-2.1 3.2-2.9 1.3-1.5 2.5-3.1 3.8-4.7 2.6-3.1 5.5-6 9.4-7.3 10.3-2.3 20.1 3.7 26.9 11 10.5 10 14.4 24.7 16.4 38.5 1.9 13.1 0 26.3-1.9 39.2-17.3-7-38.9-7.5-51.4-23-9.2-14.6-12.8-31.7-16.3-48.3-1.3-6.3-2.7-12.6-4.1-18.9-1.3-6.1-2.9-12.5-2.7-18.8 0.1-1.8 0.3-3.5 0.2-5.3-2.1 2.2-3.1 5.2-3.3 8.2-0.3 4 1.2 8.3 2 12.2 3.7 17.8 6 36.1 11.4 53.5 1.7 5.5 3.8 10.9 6.4 16 4.8 9.7 14 16.6 24.4 19.2 21.4 6.2 44.6 12.6 59.8 30zm-69.4-46.2c6 7.6 17.5 12.9 26.3 6.7 14.2-9.9 15.2-32.7 4.6-45.5-6.4-6.2-14.6-13.1-24.1-11.6-5.8 0.9-9.8 5.8-12.5 10.6-6.8 12.8-2.8 28.8 5.7 39.8zm-138.8-53.2c7.4-1 14.5-3.3 21.8-4.6q1.4-0.3 2.8-0.4c6.4-0.7 12.4 0.2 18.9 0.5 1.5 0.1 3.1 0.1 4.6-0.4 4.8-1.9 2.3-6.8 0-9.6-2.2-2.6-5-4.1-8-5.3-12.8-4.8-26.4-0.5-36.6 8.1-2.1 1.8-4.4 4.2-5.4 6.9-0.7 1.7-0.9 5.2 1.9 4.8zm8.9 9.1q3.3-2.1 6.7-3.9c1.8-0.9 5-3.2 7-3.3-8 0.1-15.1 4.1-21.8 8.2-14.8 9-25.3 24.6-26.3 42.2 0 0.7-0.2 2.6 0.9 1.7 0.5-0.4 0.7-3 0.9-3.6q1-3.8 2.5-7.3c2-4.8 4.6-9.3 7.6-13.4 6.1-8.2 13.9-15.2 22.5-20.6zm32.8 129.7c0.2-0.7-2.3-1.5-2.9-1.8-2.7-1-5.5-1.4-8.3-1.3-5 0.3-9.6 2.9-12.6 6.8-4 5.3-5.6 15.8-0.6 21 0.4 0.5 0.8 1 1.2 1q0.2 0 0.5-0.3c0.9-0.8 0.4-2.6 0.3-3.6q0-2.2 0.3-4.3c0.5-2.8 1.6-5.4 3.1-7.8 3.5-5.1 9.2-8.5 15.3-8.9 0.7 0 3.4 0.1 3.7-0.8zm18.4-91.7c-4.5-16.5-23.3-31.1-40.4-22.5-16.9 7.7-24.3 30.4-17.6 47.2 7.1 16.4 29.3 22.9 44.2 13.2 11.3-8.5 18.5-23.9 13.8-37.9zm3.4-33.3c-1.1-2.9-2.7-5.8-5.2-7.7-2-1.6-4-3.1-6.2-4.4-2.3-1.4-5.7-2.9-8.3-1.8 0.4 0.5 1.3 0.8 1.9 1.2q1 0.6 1.9 1.2c2.7 1.8 5 3.9 7.5 5.8 2.3 1.8 4.8 3.4 6.9 5.4q0 0.1 0.1 0.1c0.2 0.3 0.5 0.7 0.8 0.8 0.6 0.2 0.7-0.1 0.6-0.6zm13.6 132.9c2.4 0 4.3-1.9 4.3-4.3 0-2.4-1.9-4.3-4.3-4.3-2.4 0-4.4 1.9-4.4 4.3 0 2.4 2 4.3 4.4 4.3zm8.6 26.6c0-2.4-1.9-4.3-4.3-4.3-2.4 0-4.3 1.9-4.3 4.3 0 2.4 1.9 4.4 4.3 4.4 2.4 0 4.3-2 4.3-4.4zm17.3-18.9c0-2.4-2-4.3-4.4-4.3-2.4 0-4.3 1.9-4.3 4.3 0 2.4 1.9 4.4 4.3 4.4 2.4 0 4.4-2 4.4-4.4zm10.6 14.6c-2.4 0-4.3 1.9-4.3 4.3 0 2.4 1.9 4.4 4.3 4.4 2.4 0 4.3-2 4.3-4.4 0-2.4-1.9-4.3-4.3-4.3zm72.5 0c0-2.4-2-4.3-4.3-4.3-2.4 0-4.4 1.9-4.4 4.3 0 2.4 2 4.3 4.4 4.3 2.3 0 4.3-1.9 4.3-4.3zm18.6-18.9c0-2.4-1.9-4.3-4.3-4.3-2.4 0-4.4 1.9-4.4 4.3 0 2.4 2 4.3 4.4 4.3 2.4 0 4.3-1.9 4.3-4.3z"/><path class="a" d="m472.7 83.9c-12-13.8-27.3-24.5-41-36.6-12.8-10.4-23.3-23.7-37.7-32-12.1-7.1-27.7-5.8-39.6 0.9 14.1-2.4 29.1 1.1 40.2 10.4 6.8 5.9 13.2 12.5 18.2 20.1 9.8 18.8 18.6 38.1 27.5 57.3q0.1 0.2 0.2 0.4 1.1 2.3 2.2 4.7 0.6 1.2 1.2 2.3c14.4 30.5 24.1 52.2 26.5 71.2 0 0 8.5-19.1 14.8-42.7 6.3-23.7 2.9-40.7-12.5-55.9q0-0.1 0-0.1z"/><path class="b" d="m191 233l44 27.2c0 0 9.8-39.4 48.4-56.7 38.5-17.2 48.5-57.4 37.6-102.6-11-45.1-60.3-47-85.2-37.8-24.9 9.2-34.5 1.9-31.4-4.4 3.1-6.3-19.5-4.8-15.7 9.4 3.8 14.1 1.7 57.4 2.7 64.9 0.9 7.6-1.5 59.1-1.7 68.6-0.3 9.5 1.3 31.4 1.3 31.4z"/><path class="a" d="m267.9 146.7c0-8.5 6.9-15.4 15.5-15.4 8.5 0 15.4 6.9 15.4 15.4 0 8.5-6.9 15.5-15.4 15.5-8.6 0-15.5-7-15.5-15.5z"/><path class="b" d="m291.6 199.2c41.4-22.1 40.9-58.8 40.9-79.1 0 0-1.2 35.5-19 53.7-20.5 21.1-21.9 25.4-21.9 25.4z"/><path class="b" d="m351.4 61.7c1.8-6.7 25.4-5.9 32.1-4l-4.1 2.9c0 0 17.3-2.5 31.3 13.9 14 16.3 32.2 73.9 30.2 89.5-1.9 15.6-14.8 15-14.8 15 0 0-30.4-9.3-37.4-12.2-7.1-2.8-16-8.6-18.8-15.9-2.7-7.3-12-34.4-12.9-40.8-0.9-6.5-5.4-28.8-6.7-33.9-1.3-5.1 1.1-14.5 1.1-14.5z"/><path class="a" d="m389.6 125.1c0-6.9 5.7-12.6 12.6-12.6 7 0 12.6 5.7 12.6 12.6 0 7-5.6 12.6-12.6 12.6-6.9 0-12.6-5.6-12.6-12.6z"/><path class="c" d="m309.1 297.3c8.3 17.1 33.6 41.8 56.4 45.5 22.8 3.7 44-4.4 47.5-8.1 3.6-3.8 6.9-13 3.2-19.3-3.7-6.2-18.2-20.4-18.2-20.4l-42.9 3.8z"/><path class="b" d="m349.9 20.2c30.8 7.1 66.8 28 73.5 61.2 6.7 33.1 42.8 119.2 42.8 119.2 0 0 22.1-37.7 26.9-71.1 4.8-33.4-10.5-44.5-23-55.5-12.4-11-49.6-40.7-59.4-50.5-9.8-9.8-25.4-17.4-39.1-15.7-13.7 1.6-27.1 8.3-27.1 8.3z"/><path class="d" d="m422.1 324c-2.1-0.7-2.9-3-5.9 2.3-3 5.2-3.7 17.2-20.6 16.6q-1.4 0-2.8 0c-0.3 3.3-3.6 5.5-11.2 5.8-35.2 1.6-71.3-23.5-87.6-36.9-7.8-2.8-15.4-5.8-22.2-9.4-20.7-11-27.1-8.7-27.1-8.7 0 0 11.8 7 16.3 14.7 4.5 7.7 9.2 17.3 9.2 17.3 8.4 26.2 34.7 53.8 78.8 71.6 0 0 30.5-28.9 38.5-30.9 8-2 26.2-13.7 33.8-22.7 7.6-9 2.9-19 0.8-19.7z"/><path class="d" d="m269.9 407.7c15.5 45 11.9 92.2-4.1 131 0 0 37-5 63.8-32.1 26.9-27.1 29.7-64.1 29.7-64.1 0 0 1.4 17.2-1 24-2.4 6.8-8.6 25.4-8.6 25.4l-6.2 10.2c0 0 15-12 23.4-26.6 8.4-14.7-3.6 13.7-3.6 13.7l16.8-31.5c0 0-6 34.4-13.2 51.9-7.2 17.4-22.7 45.5-11.1 57.4 11.7 11.9 48.7 11.5 56.3 11.1 7.6-0.5 13.6-6.6 13.6-6.6 0 0 4.2 10.9 1.1 14.4-3.1 3.5-38.1 6.2-50.7 5.1-12.6-1.2-42.6-6.5-42.6-6.5 0 0-24.1-13.1-46.7-20.6-22.6-7.4-42.3-13.1-42.3-13.1 0 0 15.4-31.9 21-62.4 5.7-30.6 5.9-53.1 5-61.4-0.8-8.3-0.6-19.3-0.6-19.3z"/><path class="d" d="m192.5 563.4c8.6 15.8 26.4 15.9 40.7 16 14.2 0.1 24.6-1.5 39.6-11.8 15.1-10.4 6 15.3-1.4 19.1-7.4 3.8-41.2 9.7-51 8-9.9-1.7-35.3-4.3-37.5-10.2-2.2-5.8 9.6-21.1 9.6-21.1z"/><path class="d" d="m192.6 351.9c-23.7 49.7-21.1 98.5-10 113.9 11.2 15.4 26.5 60.3 23.4 86l-18.2 4.5c0 0-1.9-35.8-8-48.8-6.1-13.1-15-30-15.2-53.4-0.2-23.4 5.1-47.6 5.1-47.6l11.4-46.4z"/><path class="d" d="m85.4 478c-11.6 37.3-0.1 71.6 17.2 78.3 0 0-1.4-19.8 0.9-25.6 0 0 4 25.8 15.8 32.7 11.8 6.9 17.8 5.4 17.8 5.4l0.8-10.7c0 0 4.7 11 13.3 11.8 8.6 0.9 24.9-5.9 24.9-5.9 0 0-5.4 17.6-6 17.9-0.7 0.2-17.9 6.2-22.1 6.3-4.2 0.2-16.7 0.2-27-0.8-10.4-1-34.9-11.4-41.1-27.7-6.1-16.3-10.3-45.5-9.2-52.4 1-6.9 14.7-29.3 14.7-29.3z"/><path class="d" d="m14.1 384.4c3.9 45 36.4 66.9 46.8 71.3 10.3 4.3 19.7-12.6 19.7-12.6l10 9.4-21.6 40.4c0 0-15.6-7.5-27.2-24.1-11.6-16.6-28.8-47.3-32.6-57.6-3.7-10.3 4.9-26.8 4.9-26.8z"/><path class="b" d="m116 410c-12.9 19.6-18.4 33.3-18.4 33.3 0 0 23.5-21.5 34.9-23.9 0 0 1.7 63.9 33.4 67.5l-1.3-38.5 3.6-49.4 17.3-51.3 16-12.3c0 0-20.4 49.9-14.9 86 0 0 4.7-40.4 22-65.9 17.2-25.5 22.7-49.9 16.4-62-6.2-12.1-33.7 33.8-42.7 42-9 8.2-48.2 51.4-48.2 51.4z"/><path class="b" d="m190.2 372.3c4.8-18.1-9.3-10.9-9.3-10.9l16.8-34.3 15.7-4.7-1.8 17.2-15.8 29.5z"/><path class="d" d="m382.2 411.1c0 0 25.6 14.7 31.4 27.6 0 0-4-35.1-5.8-58.6-1.8-23.4-6.8-17.1-9.9-16.9-3 0.2-14 1.2-15.4 4-1.5 2.8-0.3 43.9-0.3 43.9z"/><path class="d" d="m363.5 224.9c-1.7 12.2 9.4 17.2 17 23.9 7.7 6.7 6.1 22.8 2.8 28.1-3.3 5.3-20.9 18.7-38.8 16.6-17.8-2.1 1.2 7.3 11.4 6.3 10.1-0.9 36.9-11.4 40.5-15.4 3.6-4.1 11.4 8.2 22.9 7.9 11.4-0.3 20.6-7.9 20.6-7.9 0 0-20.4-0.5-23.7-6.4-3.2-5.9-5.5-19 0-24.8 5.5-5.8 17.8-14.5 18.9-28.3 1.1-13.7-71.6 0-71.6 0z"/><path fill-rule="evenodd" class="e" d="m509.7 98.7q-0.2 1.2-0.4 2.3c-2.9 19.3-7.5 38.2-13.3 56.8-5.9 18.3-12.4 36.2-23 52.2-1.1 1.6-2.1 3.2-2.6 5.1-0.4 1.7-0.3 3.4-0.2 5.2 0.8 16.7-0.4 34.4-8.9 49.2-7.3 12.8-20.2 22.7-34.8 25.4-3.5 0.8-7 1-10.6 0.9-2.1 2.1-5.2 5.8-5.4 9.3 4.3 4.6 8.7 10.3 9.6 15.4q1.2 0.3 2.3 0.8c5.9 2.3 8.7 9.7 5.7 15.3-4.3 9.5-11.4 17.7-19.8 24 7.9 14.8 9.8 31.8 11.9 48.2 3.4 31.2-2.8 62.6-13.1 92q-1.4 3.8-2.7 7.6c-7.9 19.3-17.4 34.9-17.4 34.9 0 0 28-1.1 40.2 13.7 9.9 12 11.6 31.5 11.8 38.4-28.8 0.6-57.7 0.4-86.6 0.7-63.9 0.8-127.9 0.5-191.9 0.4-49.5-0.7-65.1-4.3-83.8-23.7-7.5-9.2-12.3-20.4-14.7-32-1.2-5.9-1.8-11.9-1.9-18 0-5.4 1.2-10.4-1.7-15.4-3.4-5.8-8.8-10.9-12.9-16.2-7.4-9.7-14.8-19.4-21.5-29.7-19.7-29.2-28.3-66.3-21.2-101.1 5-22.8 16.9-44.6 35.4-59.3-14 122.3 54.4 135.6 54.4 135.6 8.4-14.1 16.2-28.6 26.2-41.6 9.7-12.9 20.9-24.5 32.9-35.2 12.9-11.9 26.4-24 34-40.2 7.8-15.3 11.5-32.2 12.8-49.3-4.3-6.9-10-13.3-11.9-21.6-6 14.5-10.4 29.9-19.5 42.9-10.7 17-28.2 28.8-47 35.2 3-7 8.3-13.8 7.7-21.8-1.3-8.3-7-15.1-12.9-20.7-19.1-17.2-46.8-20.5-65.3-38.5-11.7-10.2-19.3-23.9-26.9-37.1-7.3-12.6-14.5-25.6-17.6-39.9-1.4-3.9 3-5.7 5.3-7.8 33-23.2 61.2-52.6 85.8-84.5 12.9-15.7 24.7-34 44.1-42.3 18.8-7.8 44-7 57.8 9.9 13.4-8.4 27.3-16.5 42.4-21.4 32.1-10.7 66.7-11.2 100-6.3 11.1-14.3 31.3-19.8 48.2-13.5 14.6 5.4 24.9 17.6 35.6 28.2 15.5 16.1 34 28.9 51.8 42.2 11.2 8.3 23.6 15.4 33.6 25.3zm-328.4-4.9c-2.5-10.8-5.4-22.2-13.1-30.5-5-5.3-12.4-6.7-19.2-8.1 6.5-12.8 23.2-7.9 34.8-8.3-6.4-6.6-16.4-7-25-6.6-13.6 0.4-24.7 9.6-33.7 18.9-13.5 14.6-25.9 30.2-40.1 44-16.2 16.6-33.9 32-47.8 50.7-5.8 7.1-3.7 15.8-0.3 23.5q0.3-1.3 0.5-2.5c1.3-5.7 3.5-11 6.2-15.9-0.5 19.7 15.8 32 15.8 32 0 0-18.6-33.2-2.9-49.3 7.8-8.2 15.8-14 20.3-17.1 2.4-1.5 3.8-2.3 3.8-2.3 0 0-21.1 25.4 5.7 44.4 2.3 1.6 4.8 3.2 7.8 4.7 18 7.1 38.4 9.2 56.7 2 8-2.3 14-10 22.8-9.6 5.1 3.6 8.1 9.6 12.9 13.1 0.4-27.6-0.3-55.7-5.2-83.1zm-97.4 357.5c0 0-25.4-14.9-36.6-32.8-17.5-28.2-23.1-63.6-16.9-96.1-20.1 30.9-21.4 72-5.7 105 4.4 8.2 9 16.4 14.6 23.8v0.1c13 19.9 30.4 31.6 30.4 31.6 0 0 6.4-18.5 14.2-31.6zm85 49.6c-2.4-12.2-5.8-24.3-7.2-36.7-0.4-3.5-0.7-7-0.6-10.3q0-0.5 0-1 0-0.5 0.1-0.9 0-0.7 0.1-1.4c0.7-8.4 1.8-18.3 2.9-27.1-8.7 19.2-8.9 50-8.9 50 0 0-10.8-47.6 9-104.4-21.4 12.1-43.3 38-62 71.7q0 0-0.1 0c-5.1 8.6-9.6 17.7-13.6 26.9q-0.9 3.3-1.9 6.7c-9.8 26.7-11.1 57.3 0.7 83.6 5.9 13.1 18.4 22.2 32.4 24.4l0.2-0.3c-11.5-3.2-18.2-14.3-20.7-25.2-1.8-10.2-0.1-21 4.5-30.2-0.8 11.4-1.6 23.4 3.1 34.2 4.7 11.3 17.2 18.5 29.4 17.8 0.2-9.2-1.1-18.6 0.7-27.7 1.4 9.2 1.2 19.8 8.1 27 6.5 0.8 13.9 0.8 19.5-3 5.5-4.3 7.9-11.5 8.2-18.3 1.1-18.6-0.7-37.4-3.9-55.8zm99.7 77c-0.5-4.4-2-8.6-5.8-11.4q-0.9-0.7-1.8-1.5c-6.7-4.9-14.8-7.3-22.9-8.2-4.4-0.5-8.7-0.3-13.1-0.4-4.5-0.1-9-0.3-13.5 0.2-3.4 0.3-7.6 0.6-10.2 3-2.4 2.2-3.6 5.1-4.7 8.1-1 3.1-1.8 7-0.4 10.1 1.3 3.1 4.1 4.7 7.1 5.8 3.6 1.2 8.2 2 13 2.4 0.1-2 0.3-5.8 0.3-6.2 0.1-2.3 0-4.6 0.6-6.8 0.3-1.1 0.7-1.5 1.6-2.3q0.1 0 0.2 0c0.1-0.1 0.2 0.1 0.3 0.2q0 0.4 0 0.7c0.2 2.3 0.3 4.7 0.6 7.1 0.3 2.6 0.8 5.2 1.6 7.7 6.1 0.4 12.5 0.3 17.8 0.2q1.8-0.1 3.6-0.2c0.1-1.8 0.1-6.6 0.2-7.2 0-2.4-0.2-5.2 0.7-7.5 0.2-0.4 0.7-1.6 1.2-0.9 1.6 2.7 2.3 5.6 2.4 8.7 0.2 2.2 0.1 4.4 0.3 6.6 8.6-0.8 16.4-2.2 18.4-4 2-1.8 2.6-2.9 2.5-4.2zm131.5-211.5q-5.7 1.8-11.6 2.9 0.3 18.8 0.1 37.6c-0.3 17.1-4.7 33.4-8.3 50-3.8 17.9-13.1 35.1-22.8 50.4-5.4 8.5-11.3 16.9-14.6 26.5-0.8 2.2-1.4 4.7-1.8 7.3q-0.4 1-0.7 2.2c-3.6 15.9 0.5 41.2 23 41.2 22.4 0 43.3 0 43.3 0-9.5-3-18.3-8.2-25.7-14.9 14.9 4.2 27.8 17.5 44.2 13.5 2.4-9.7-5.3-17.9-12.7-22.9-2.8-2-5.9-3.6-9.1-4.9q-0.2-0.1-0.5-0.2c-13.6-5.4-25.4-4.7-35.9-1 8.1-11.7 21.9-42.5 30-70.8q2.7-10.2 4.7-20.4 0.3-1.6 0.6-2.9c2-11 3.4-22 4-33.2 1.1-20.4-3.3-40.4-6.2-60.4zm19.6-41.5c-3.4 11.4-9.5 22.9-20.5 28.5-12.6 6.3-27.1 5.8-40.7 4.2-22.2-3.1-40.9-16.9-57.8-30.7-5.1-4.9-10.7-9.3-16.4-13.5-6.1-4.1-16.6-10.5-30.8-15.9q2 2.3 4.1 4.5c9 9 11.7 19.2 12.6 23.7-6.8-11-16-20.9-26.6-28.4-3.3-2.5-6.9-4.9-10.8-6.3-1.9 2.1-1.8 5.3 0.7 7.5 10.1 8.8 20 18.2 27 29.8q-4.8-5.6-10-10.6c-1.7-1.5-11.5-10-18.2-14.2-7.3-4.6-11.5-2.6-18.7 10.6v-0.2c-7.4 13.9-16 27.1-22.7 41.4q-1.3 2.9-2.6 5.7c-2.5 6.1-4.8 11.5-6.9 16.5-10.1 23.4-15.5 49.7-12.2 82 4.5 31.2 15.9 45.3 19.1 59.3 0.9 4.1 1.9 8.3 2.4 12.5 0.5 4 0.3 14.2 1.9 18 0.2 0.5 0.6 1.2 1.1 1.5 2 1.4 2.4-1.8 2.5-3.1 0.2-5.2-0.6-16.3-1.8-21.4-1.3-6.2-3.2-12.2-5.1-18.3q-1.5-4.9-3.2-9.8-3.2-9.9-7-19.5 1.3 1.9 2.6 3.8c5.6 8.4 10.2 17.5 13.4 27.1 1.6 4.9 2.8 9.8 3.7 14.9q0.6 3.7 0.9 7.5c0.2 2.5 0 11.1 0.6 13.6 0.4 1.5 1.2 2.9 2.5 3.7 1.4 0.9 3.2 0.9 4.9 0.6 8-1.2 16.3-1.2 24.5-1 0.7 0 7.6 0.6 7.8 0.2 5.7-12.2 10.5-30.7 14.4-43.5 7.3-24.3 11.9-49.4 13.4-74.7 0.3-8.2-0.2-19.7-3.5-37.9-4-22.1-10.3-34.2-23.8-58.7q-2.6-4.5-5.3-9c5.2 0.4 8.3 5.7 10.7 10.4 13.5 26.6 28.5 52.5 45.1 77.3-13.4-13.2-24.2-28.8-24.2-28.8-0.7 1.9 0 4.2 3.2 23.7l-0.1-0.2q0.9 4.5 1.5 9c1.8 13.2 2.4 26.5 1.7 39.8-0.6 12.8-1.9 25.8-4.7 38.3-1.7 8.4-4.8 16.3-7.7 24.3-3 8.2-6 22.4-9.2 30.5 0.4-1 9.3 1.1 10.5 1.3 4.3 0.9 8.7 1.1 13.1 0.6 8.6-1.1 16.8-4.8 23.9-9.4 24.2-15.7 44.4-39.8 53.1-67.5 5.2-16.7 9.2-34.3 7.1-51.8 9.9 33.6-3.5 69.5-24.9 95.7q-2.9 3.3-5.9 6.3c7.1-5.4 13.5-11.4 19.4-17.9q0.9-1.5 1.9-3.1 2.2-3.5 4.6-7.4c4.2-6.9 8.1-14.1 11-21.7q1.6-3.6 3-7.3c4.8-11.6 4.8-23.5 1.2-34.9q-3-7.8-7.8-16.2-0.7-1.1-1.2-2.1c-5.8-9.7-13.1-19.6-20.9-28.5-6.2-6.4-11.2-13.8-17.2-20.4-7.1-7.1-14.3-14.6-21.2-22.7-1.7-1.4-3.1-3-4.2-4.9 6.1 3.2 11.4 7.8 17.5 11 21.4 12.6 47.3 18 72 14.3 14.3-1.7 26.1-11.3 33.4-23.4 1.1-1.8 4.9-8.8 2.7-12.4-0.8-0.9-1.7-1.7-2.9-2.3zm32.4-124.1c-15.2-17.4-38.4-23.8-59.8-30-10.4-2.6-19.6-9.5-24.4-19.2-2.6-5.1-4.7-10.5-6.4-16-5.4-17.4-7.7-35.7-11.4-53.5-0.8-3.9-2.3-8.2-2-12.2 0.2-3 1.2-6 3.3-8.2 0.1 1.8-0.1 3.5-0.2 5.3-0.2 6.3 1.4 12.7 2.7 18.8 1.4 6.3 2.8 12.6 4.1 18.9 3.5 16.6 7.1 33.7 16.3 48.3 12.5 15.5 34.1 16 51.4 23 1.9-12.9 3.8-26.1 1.9-39.2-2-13.8-5.9-28.5-16.4-38.5-6.8-7.3-16.6-13.3-26.9-11-3.9 1.3-6.8 4.2-9.4 7.3-1.3 1.6-2.5 3.2-3.8 4.7-0.7 0.8-2 2.8-3.2 2.9-2.3 0.1-0.7-4-0.3-4.9 0.9-2.3 2.4-4.2 4-6.1q1.5-1.7 3.2-3.4c1.1-0.9 2.3-1.7 3.1-2.9 0.1-0.2 0.3-0.5 0.1-0.7 0-0.3-0.3-0.4-0.5-0.4-4.1-1.5-8.2-2.6-12.4-3.3-1.4-0.2-2.9-0.7-3.9-1.7-2.8-3.3 0.3-8.2 2.9-10.5 1.2-1 2.5-1.8 3.9-2.6 0.4-0.1 3.8-1.4 3.8-1.6q0 1 0 1.9c0 0.2 0 0.5 0.2 0.6 0.2 0.3 0.7 0.1 1 0 4.1-2.1 9-1.3 13.4 0.1 6.7 2.1 13.8 6.7 13.7 14.6 6.9 5 12.4 11.5 18.2 17.7q-1.4-5.2-3.2-10.3-1.8-5.3-4.1-10.4c-2.9-6.5-6.5-13-11.1-18.5-4.7-5.5-10.1-10.4-15.9-14.8-11.1-8.4-24-14.4-37.8-16.7-47.6-8.2-97.8 3.8-137.7 30.7q-2.7 2.2-5 4.9h-0.3c-10.5 17.8-7.4 39.2-7.7 58.8-0.2 6.5 0 12.9 0.3 19.3 0.5 42.9-6.7 66.8-1.2 89.2 2 6.8 4.5 13.5 8.9 19.1 12.4 22.3 36.1 35.6 59.4 43.9 7 2.6 13.6 5.8 20 9.5 26.2 17.1 40 37 61.3 44.1 4.4 1.5 8.6 2.6 12.5 3.3 21.4 4.3 32 1.8 38.9 0 6.9-1.8 10.3-7.5 10.3-7.5 0 0-10.5 5.2-24.3 5.1-4-0.1-8.2-0.7-12.5-1.6q-0.1 0-0.3 0-2.1-0.6-3.8-0.9c-6.9-1.8-13.7-4.4-20.2-7.7-4.1-2-7.9-4.4-11.5-6.9q0 0-0.1 0c-16.8-12-27.1-27.6-27.1-27.6-5.5-6.9-10.7-14-15.8-21.3-4.6-7.3-10.1-14.3-12.6-22.8 6.3 2.6 10.3 8.3 15.6 12.3 19.3 15.1 44.8 23.8 69.2 18.8 11.7-2 23.4-7.6 30.3-17.5 4.2-6.2 6.1-13.6 6.2-21 0-0.1-4-1.8-6.8-3-4.6 10.9-14.6 11.1-14.6 11.1 5.7-2.3 9.1-7 11-12.8q-4.7-2.6-9.1-5.7c-1.3-0.9-2.7-2-4.1-3-6.1 7.4-14.3 6.3-14.3 6.3 5-1.2 8.7-4.4 11.4-8.6-6.5-5.3-12.8-12-13.3-19.9-1-8.4 3.4-16.7 10.2-21.5 7.4-5.1 17.6-6.9 26.3-7.8 9.4-0.9 19.1 0 27.7 4.1 6.7 2.9 12.4 8.2 14.9 15.1 1.8 10.8-3.1 22.7-10.1 31.2 3.2 3 7.1 5 11.7 5.2 0 0-7 2.4-14-2.6q-0.4 0.3-0.7 0.7c-2.4 2.3-5 4.4-7.8 6.2-0.7 0.5-1.5 0.8-2.2 1.2 2.2 2.1 4.8 3.7 8 4.4 0 0-5.3 0.8-10.6-2.9-1 0.5-3.1 1.8-3.1 1.7-0.7 11.2-1.3 22.3-3.2 33.3 9.8 2.6 20.6 2.9 28.4-0.8 4-1.9 7-3.6 9.6-5.8q1-1 2.1-2.1c-1.3-0.8-2.1-2.2-2.1-3.7 0-2.4 1.9-4.4 4.3-4.4 1.3 0 2.5 0.6 3.2 1.5q0.5-0.7 1-1.4 0.2-0.2 0.3-0.5c3.9-6 6.6-12.8 8.1-19.9q-0.1 0-0.2 0c-2.4 0-4.3-1.9-4.3-4.3 0-2.4 1.9-4.3 4.3-4.3q0.8 0 1.5 0.2c1.1-13.7-2.2-27.8-10.4-38.9zm-23.7 9.3c-6.4-2.6-13.3-0.8-19.5 1.5-1.7 3.2 1.6 4.9 4.2 5.6 3.4 0.8 7.2 0.3 10.3-1.2 1.6-0.8 6.9-3 7.1-4.9 1.1-8.1-7.6-12.9-13.9-15.8-6.6-2-13.5-1.7-20.1-0.2-2.5 0.5-5.9 3.5-5.9 6.3 0 1.5 1 2.8 2.3 3.6 2.1 1.4 5.2 1.9 7.7 2 9.1 0.2 21.1-5.5 27.8 3.1zm-31.4 88.7c-5.6 2-11.5 3.4-17.7 4.3 8.7 9.4 10.2 15.4 10.2 15.4 0 0-4.7-6.2-18.2-14.6-16.6 1.3-35-0.3-54.5-3 4.2 6.3 8.9 12.3 13.9 17.9 9 8.4 18.1 15.1 28.6 18.8 12.9 3.4 40.8 2.7 49.1-3.7 8.4-6.4 8.3-10.9 7.5-15-0.8-4-7.7-15-18.9-20.1zm75.7-214.8c-12-13.9-27.3-24.6-41-36.7-12.8-10.4-23.3-23.7-37.7-32-12.1-7.1-27.7-5.8-39.6 0.9 14.1-2.4 29.1 1.1 40.2 10.4 8.5 7.4 16.2 15.8 21.4 25.9 1.4 2.7 2.6 5.4 3.9 8.2 6.6 14.5 13.7 28.8 20.4 43.3q0.1 0.2 0.2 0.4 1.1 2.3 2.2 4.7 0.6 1.2 1.2 2.3c14.4 30.5 24.1 52.2 26.5 71.2 0 0 8.5-19.1 14.8-42.7 6.3-23.7 2.9-40.7-12.5-55.9z"/><path class="e" d="m243.9 101.4c7.4-1 14.5-3.3 21.8-4.6q1.4-0.3 2.8-0.4c6.4-0.7 12.4 0.2 18.9 0.5 1.5 0.1 3.1 0.1 4.6-0.4 4.8-1.9 2.3-6.8 0-9.6-2.2-2.6-5-4.1-8-5.3-12.8-4.8-26.4-0.5-36.6 8.1-2.1 1.8-4.4 4.2-5.4 6.9-0.7 1.7-0.9 5.2 1.9 4.8z"/><path class="e" d="m302.2 107.5c-2-1.6-4-3.1-6.2-4.4-2.3-1.4-5.7-2.9-8.3-1.8 0.4 0.5 1.3 0.8 1.9 1.2q1 0.6 1.9 1.2c2.7 1.8 5 3.9 7.5 5.8 2.3 1.8 4.8 3.4 6.9 5.4q0 0.1 0.1 0.1c0.2 0.3 0.5 0.7 0.8 0.8 0.6 0.2 0.7-0.1 0.6-0.6-1.1-2.9-2.7-5.8-5.2-7.7z"/><path class="e" d="m259.5 106.6c1.8-0.9 5-3.2 7-3.3-8 0.1-15.1 4.1-21.8 8.2-14.8 9-25.3 24.6-26.3 42.2 0 0.7-0.2 2.6 0.9 1.7 0.5-0.4 0.7-3 0.9-3.6q1-3.8 2.5-7.3c2-4.8 4.6-9.3 7.6-13.4 6.1-8.2 13.9-15.2 22.5-20.6q3.3-2.1 6.7-3.9z"/><path fill-rule="evenodd" class="e" d="m382.7 154.6c-8.5-11-12.5-27-5.7-39.8 2.7-4.8 6.7-9.7 12.5-10.6 9.5-1.5 17.7 5.4 24.1 11.6 10.6 12.8 9.6 35.6-4.6 45.5-8.8 6.2-20.3 0.9-26.3-6.7zm25.6-19.9c10.3-7.8-1.7-27.6-13-19.4-10.5 7.7 2.1 24.8 13 19.4z"/><path fill-rule="evenodd" class="e" d="m304 148.5c4.7 14-2.5 29.4-13.8 37.9-14.9 9.7-37.1 3.2-44.2-13.2-6.7-16.8 0.7-39.5 17.6-47.2 17.1-8.6 35.9 6 40.4 22.5zm-24.8-14.8c-5.4 1.7-8.3 7.8-7.1 13.2 1.3 8 10.4 12.8 17.8 9.5 11.2-6.5 1.6-27.3-10.7-22.7z"/><path class="e" d="m282.7 238.4c-2.7-1-5.5-1.4-8.3-1.3-5 0.3-9.6 2.9-12.6 6.8-4 5.3-5.6 15.8-0.6 21 0.4 0.5 0.8 1 1.2 1q0.2 0 0.5-0.3c0.9-0.8 0.4-2.6 0.3-3.6q0-2.2 0.3-4.3c0.5-2.8 1.6-5.4 3.1-7.8 3.5-5.1 9.2-8.5 15.3-8.9 0.7 0 3.4 0.1 3.7-0.8 0.2-0.7-2.3-1.5-2.9-1.8z"/><path class="e" d="m342.5 251.5c-2.4 0-4.3 1.9-4.3 4.3 0 2.4 1.9 4.4 4.3 4.4 2.4 0 4.4-2 4.4-4.4 0-2.4-2-4.3-4.4-4.3z"/><path class="e" d="m325.3 243.8c0-2.4-1.9-4.3-4.3-4.3-2.4 0-4.4 1.9-4.4 4.3 0 2.4 2 4.3 4.4 4.3 2.4 0 4.3-1.9 4.3-4.3z"/><path class="e" d="m325.3 270.4c-2.4 0-4.3 1.9-4.3 4.3 0 2.4 1.9 4.4 4.3 4.4 2.4 0 4.3-2 4.3-4.4 0-2.4-1.9-4.3-4.3-4.3z"/><path class="e" d="m353.2 274.7c0 2.4 1.9 4.4 4.3 4.4 2.4 0 4.3-2 4.3-4.4 0-2.4-1.9-4.3-4.3-4.3-2.4 0-4.3 1.9-4.3 4.3z"/><path class="e" d="m425.7 266.1c-2.4 0-4.4 1.9-4.4 4.3 0 2.4 2 4.3 4.4 4.3 2.3 0 4.3-1.9 4.3-4.3 0-2.4-2-4.3-4.3-4.3z"/><path class="e" d="m444.3 247.2c-2.4 0-4.4 1.9-4.4 4.3 0 2.4 2 4.3 4.4 4.3 2.4 0 4.3-1.9 4.3-4.3 0-2.4-1.9-4.3-4.3-4.3z"/></svg>